<?xml version="1.0" encoding="UTF-8" standalone="no"?>
<svg
   xmlns:dc="http://purl.org/dc/elements/1.1/"
   xmlns:cc="http://creativecommons.org/ns#"
   xmlns:rdf="http://www.w3.org/1999/02/22-rdf-syntax-ns#"
   xmlns:svg="http://www.w3.org/2000/svg"
   xmlns="http://www.w3.org/2000/svg"
   xmlns:sodipodi="http://sodipodi.sourceforge.net/DTD/sodipodi-0.dtd"
   xmlns:inkscape="http://www.inkscape.org/namespaces/inkscape"
   xml:space="preserve"
   enable-background="new 0 0 300 100"
   viewBox="0 0 300 100"
   height="100px"
   width="300px"
   y="0px"
   x="0px"
   id="Layer_1"
   version="1.1"
   sodipodi:docname="logo.svg"
   inkscape:version="0.92.3 (2405546, 2018-03-11)"><sodipodi:namedview
     pagecolor="#ffffff"
     bordercolor="#666666"
     borderopacity="1"
     objecttolerance="10"
     gridtolerance="10"
     guidetolerance="10"
     inkscape:pageopacity="0"
     inkscape:pageshadow="2"
     inkscape:window-width="1299"
     inkscape:window-height="713"
     id="namedview14"
     showgrid="false"
     inkscape:zoom="1.14"
     inkscape:cx="179.88444"
     inkscape:cy="50"
     inkscape:window-x="67"
     inkscape:window-y="27"
     inkscape:window-maximized="1"
     inkscape:current-layer="g6" /><metadata
     id="metadata25"><rdf:RDF><cc:Work
         rdf:about=""><dc:format>image/svg+xml</dc:format><dc:type
           rdf:resource="http://purl.org/dc/dcmitype/StillImage" /><dc:title /></cc:Work></rdf:RDF></metadata><defs
     id="defs23" /><g
     transform="matrix(1.2935718,0,0,1.2935718,-44.037064,-14.679884)"
     id="g18"><g
       id="g6"><path
         inkscape:connector-curvature="0"
         id="path838"
         d="m 139.64292,81.506405 c -5.40802,-1.049338 -10.0741,-3.655306 -14.10654,-7.878424 -4.19376,-4.392057 -6.8048,-9.452236 -8.32839,-16.140337 -0.53305,-2.339929 -0.58608,-2.997371 -0.5819,-7.21383 0.004,-4.182233 0.0619,-4.892888 0.5865,-7.213827 1.4956,-6.617058 4.07254,-11.650937 8.20098,-16.020051 6.62111,-7.007109 15.72018,-9.844571 24.58907,-7.667884 10.81275,2.653768 19.28795,12.68523 21.21494,25.110577 2.34488,15.119869 -4.75654,29.795301 -17.0663,35.26836 -4.46207,1.983877 -9.92458,2.644809 -14.50836,1.755416 z m 10.80794,-1.156139 c 7.50985,-2.184633 13.98787,-8.007285 17.52642,-15.753308 3.35733,-7.349316 3.94073,-16.447092 1.56293,-24.373281 -1.4732,-4.91084 -3.47048,-8.473084 -6.84051,-12.200451 -3.54725,-3.923382 -7.49463,-6.444842 -12.24884,-7.824187 -3.22563,-0.935858 -7.97282,-1.075061 -11.28412,-0.330888 -5.48931,1.233645 -9.83772,3.844954 -13.81066,8.293586 -3.96123,4.435514 -6.47638,9.762495 -7.78869,16.49613 -0.43715,2.243082 -0.36663,9.289989 0.11795,11.785725 1.74331,8.978474 6.41518,16.297137 13.31902,20.864754 2.4899,1.647328 6.25656,3.106134 9.52457,3.688831 0.36547,0.06517 2.25931,0.08826 4.20853,0.05133 2.97418,-0.05636 3.89283,-0.168629 5.7134,-0.698241 z m -9.25742,-2.856343 c -2.09787,-0.293202 -5.18374,-1.296169 -7.19881,-2.339747 -6.89414,-3.570402 -11.53337,-9.781835 -13.56138,-18.157249 -0.62673,-2.588314 -0.68195,-3.132703 -0.68195,-6.723113 0,-3.590406 0.0552,-4.134794 0.68195,-6.723108 1.48207,-6.120746 4.09767,-10.679854 8.34564,-14.546789 4.60652,-4.193327 11.27229,-6.581926 16.95533,-6.075742 2.43381,0.216777 6.29428,1.318522 8.47772,2.419468 7.39958,3.731074 12.78606,11.695373 13.9895,20.684504 0.19108,1.427326 0.34743,3.336077 0.34743,4.241667 0,10.432996 -5.52503,20.233404 -13.915,24.682683 -3.95479,2.097261 -9.32958,3.111969 -13.44043,2.537426 z m 17.53634,-8.907958 c 0.1746,-0.06135 -0.12851,-1.391656 -0.92825,-4.074022 -3.27906,-10.998092 -7.16698,-24.237425 -7.12777,-24.271774 0.0244,-0.02132 1.7382,0.763086 3.80859,1.74312 2.07039,0.98003 3.80328,1.738964 3.85086,1.686516 0.13469,-0.148482 -3.12826,-12.319295 -3.30277,-12.319295 -0.0851,0 -2.55685,1.263588 -5.4926,2.807973 -2.93576,1.544389 -5.47529,2.807977 -5.64342,2.807977 -0.16812,0 -2.67369,-1.270903 -5.56791,-2.824227 -2.89422,-1.553324 -5.327,-2.753969 -5.40618,-2.668098 -0.23349,0.253233 -3.08431,11.846339 -2.93677,11.94258 0.0742,0.04836 1.38075,-0.450092 2.90356,-1.107671 4.76608,-2.058062 5.08211,-2.175679 4.98642,-1.855788 -0.049,0.163824 -0.53615,2.000961 -1.08254,4.082525 -0.54638,2.081564 -1.54141,5.872328 -2.21116,8.423923 -0.66976,2.551595 -1.8326,6.985533 -2.58409,9.8532 -0.7515,2.867663 -1.28199,5.30646 -1.17887,5.419547 0.10311,0.113084 2.1785,0.224764 4.61197,0.248174 l 4.42449,0.04257 2.105,-13.695994 c 1.15775,-7.532797 2.163,-13.616698 2.23387,-13.519777 0.0709,0.09692 1.20257,6.219461 2.51489,13.605657 1.31232,7.386192 2.41719,13.545648 2.45528,13.687675 0.0644,0.240185 8.88067,0.226558 9.5674,-0.01482 z M 62.892648,66.267063 v -2.93006 h 1.788981 1.788982 l -0.03944,0.793557 c -0.07289,1.467436 -0.116455,1.430829 1.611354,1.353641 l 1.605892,-0.07174 0.06285,-2.624844 c 0.03584,-1.497059 -0.02521,-2.624849 -0.142222,-2.624849 -0.11281,0 -1.078309,0.604327 -2.145557,1.342947 -2.591207,1.793306 -3.768752,1.769163 -4.911861,-0.10071 -0.493395,-0.807079 -0.505023,-0.971708 -0.505023,-7.146308 0,-7.189145 0.10012,-7.778686 1.424672,-8.38876 0.609824,-0.280879 1.940336,-0.35747 6.210012,-0.35747 h 5.433905 v 1.953375 1.953373 h -0.760234 -0.760235 l -0.0704,8.729138 c -0.06354,7.884314 -0.109338,8.807805 -0.472739,9.541934 -0.657345,1.327962 -1.371276,1.506837 -6.014086,1.506837 h -4.104894 z m 5.041127,-9.649047 1.825424,-1.347207 V 52.345012 49.419215 H 67.65493 65.55067 v 4.273005 c 0,3.271734 0.06534,4.273003 0.278844,4.273003 0.15337,0 1.100287,-0.606242 2.104261,-1.347207 z M 38.248208,62.459407 C 38.158158,62.360147 38.08448,61.47316 38.08448,60.488331 v -1.790593 h 0.888874 0.888875 l -0.05822,-8.484965 -0.05822,-8.484966 -0.830625,-0.07578 -0.830634,-0.07578 v -1.81655 -1.816545 h 5.799853 c 5.477088,0 5.854457,0.02913 6.780915,0.52353 0.729828,0.389461 1.086832,0.780272 1.394085,1.526072 0.379222,0.920524 0.413409,1.752399 0.417877,10.168288 0.0069,12.984945 0.487941,12.276049 -8.41459,12.40011 -3.107874,0.04331 -5.724368,-0.0025 -5.814413,-0.101739 z m 10.637336,-12.246634 -0.05822,-8.484966 h -2.658022 -2.658014 l -0.05848,8.178017 c -0.03215,4.497905 -0.01037,8.316141 0.04845,8.484965 0.0776,0.222976 0.836705,0.306949 2.774691,0.306949 h 2.667841 z m 5.147044,10.453081 v -1.938633 l 0.830634,-0.07578 0.830625,-0.07578 v -4.517177 -4.517177 l -0.830625,-0.07578 -0.830634,-0.07577 v -1.938635 -1.938634 h 2.658013 2.658023 v 6.592635 6.592636 h 0.886001 0.886011 v 1.953375 1.953374 h -3.544024 -3.544024 z m 21.928649,-0.01476 v -1.95337 h 0.88601 0.886002 v -4.624519 -4.624523 l -0.830626,-0.07578 -0.830634,-0.07578 -0.06465,-1.892329 -0.06465,-1.892333 h 2.667335 2.667334 v 6.592637 6.592635 h 0.88601 0.886002 v 1.953374 1.953376 h -3.544024 -3.544024 z m 11.838129,1.692532 c -0.895323,-0.286836 -1.55188,-1.104999 -1.848097,-2.302959 -0.136031,-0.55017 -0.242032,-3.082631 -0.242727,-5.799079 l -0.0017,-4.82239 H 84.710073 83.71331 V 47.465825 45.51245 h 0.989509 0.989499 l 0.0626,-2.74693 0.0626,-2.746932 1.709296,-0.07117 1.709295,-0.07117 0.06268,2.757057 0.06268,2.757059 1.05213,0.07442 1.052139,0.07442 v 1.926618 1.92662 l -1.052139,0.07442 -1.05213,0.07442 -0.06028,4.57822 -0.06028,4.578218 h 1.223138 1.223146 v -0.862436 c 0,-1.854652 0.423974,-2.396726 3.697797,-4.727909 3.885387,-2.766653 4.054757,-2.905895 4.054757,-3.333314 0,-0.282535 -0.38374,-0.354858 -1.882764,-0.354858 h -1.882756 v 0.854598 0.854601 h -1.66126 -1.661268 v -2.807973 -2.807975 h 4.104894 c 4.486617,0 5.199587,0.158735 6.046987,1.346284 0.46078,0.645753 0.48019,0.898538 0.48019,6.255968 v 5.583018 h 0.886 0.88601 v 1.953375 1.953376 h -5.282977 c -5.304743,0 -6.345006,-0.134378 -7.17648,-0.927021 -0.35601,-0.339385 -0.387625,-0.316647 -0.387625,0.278747 0,0.647711 -0.0017,0.648255 -1.716636,0.626252 -0.944147,-0.01213 -2.021162,-0.119586 -2.393352,-0.238827 z m 11.641036,-5.477191 c 0,-1.122088 -0.09053,-1.831287 -0.233758,-1.831287 -0.128571,0 -1.025651,0.559967 -1.993517,1.244371 -1.397524,0.988228 -1.759758,1.365179 -1.759758,1.831288 0,0.5763 0.0361,0.586916 1.993516,0.586916 h 1.993517 z m 6.202038,3.784662 v -1.953371 h 0.88887 0.88889 l -0.0582,-8.484966 -0.0582,-8.484965 -0.83062,-0.07578 -0.83064,-0.07578 v -1.816546 -1.816545 h 2.65802 2.65802 V 48.32044 58.697736 h 0.886 0.88601 v 1.953375 1.953374 h -3.54402 -3.54403 z m 69.92065,1.790594 c -0.0812,-0.08953 -0.14767,-0.968547 -0.14767,-1.953375 v -1.79059 h 0.886 0.88601 v -8.545999 -8.546012 h -0.88601 -0.886 v -1.831288 -1.831286 l 2.71339,9.8e-5 2.7134,1.01e-4 1.10094,2.624743 c 0.60551,1.443612 1.76969,4.163029 2.58705,6.043151 l 1.48611,3.418405 0.88509,-2.075459 c 0.4868,-1.141504 1.62459,-3.833496 2.52843,-5.982207 l 1.64335,-3.906745 2.69244,-0.06856 2.69244,-0.06856 v 1.824063 1.824065 l -0.83063,0.07577 -0.83063,0.07578 v 8.423924 8.423923 l 0.83063,0.07578 0.83063,0.07578 v 1.938634 1.938634 h -3.54402 -3.54403 v -1.95337 -1.953375 h 0.88601 0.88601 v -5.24969 c 0,-2.887331 -0.0789,-5.249691 -0.17525,-5.249691 -0.0964,0 -0.95861,1.867913 -1.91606,4.150919 l -1.74081,4.150917 h -1.18496 c -0.65174,0 -1.2527,0.02747 -1.33549,0.06104 -0.0828,0.03357 -0.87115,-1.684769 -1.75188,-3.818541 -0.88074,-2.133771 -1.70334,-4.111564 -1.828,-4.39509 -0.16218,-0.368873 -0.2309,1.029847 -0.24163,4.917312 l -0.015,5.432818 h 0.77525 0.77526 v 1.953376 1.953374 h -3.39636 c -1.86799,0 -3.46281,-0.07326 -3.54402,-0.162781 z m 25.42521,-0.167709 c -0.37127,-0.185293 -0.86953,-0.653706 -1.10724,-1.04093 -0.39165,-0.637991 -0.43935,-1.236612 -0.50856,-6.381033 l -0.0764,-5.676992 h -0.75452 -0.75453 v -1.831283 -1.831289 h 2.65801 2.65802 v 6.104295 c 0,3.582034 0.0847,6.104293 0.20513,6.104293 0.11283,0 0.95787,-0.521917 1.87787,-1.159816 l 1.67274,-1.159818 0.005,-3.113188 0.005,-3.113189 h -0.66451 -0.6645 v -1.831288 -1.831289 h 2.54727 2.54727 v 6.577896 6.577899 l 0.79982,0.07578 0.79982,0.07578 -8.6e-4,1.831289 -8.6e-4,1.831287 -2.6704,0.06847 -2.67042,0.06847 -0.0666,-1.339858 -0.0666,-1.339858 -1.73924,1.236934 c -1.8968,1.348988 -2.95109,1.636072 -4.03034,1.097462 z m 12.00854,0.167709 c -0.0812,-0.08953 -0.14766,-0.968547 -0.14766,-1.953375 v -1.79059 h 0.89078 0.8908 l -0.0602,-4.700303 -0.0602,-4.700307 -0.83064,-0.07578 -0.83062,-0.07578 v -1.81655 -1.816547 h 2.76876 2.76878 v 1.225124 1.22512 l 1.82542,-1.347207 c 1.58877,-1.172563 1.96493,-1.347207 2.90166,-1.347207 0.92864,0 1.17955,0.113865 1.82936,0.830183 l 0.7531,0.830184 v 5.884539 5.884536 h 0.88601 0.88601 v 1.953374 1.953376 h -3.32252 -3.32253 V 60.651114 58.69774 h 0.6645 0.66451 v -4.395082 c 0,-2.417297 -0.0553,-4.395091 -0.12301,-4.395091 -0.0676,0 -0.9149,0.559967 -1.88276,1.244373 l -1.75975,1.244367 v 3.150722 3.150719 h 0.55375 c 0.54452,0 0.55376,0.03256 0.55376,1.953374 v 1.953376 h -3.17487 c -1.74616,0 -3.2413,-0.07326 -3.32251,-0.162782 z m 15.74507,0.02161 c -0.0914,-0.101408 -0.16613,-1.539541 -0.16613,-3.195843 V 56.25601 h 1.66127 1.66126 v 1.220859 1.220856 h 1.66126 c 1.6267,0 1.66126,-0.01277 1.66126,-0.613691 0,-0.520612 -0.47882,-0.957927 -3.15685,-2.883193 -2.09712,-1.507658 -3.24963,-2.493999 -3.43327,-2.938286 -0.43026,-1.040952 -0.35315,-4.033299 0.12999,-5.044707 0.72035,-1.508012 1.39491,-1.704583 5.85101,-1.705016 l 3.93165,-3.16e-4 v 3.174235 3.174231 h -1.64969 -1.64969 l -0.067,-1.281902 -0.067,-1.281901 h -1.55051 c -1.42845,0 -1.55597,0.04226 -1.61979,0.536752 -0.0772,0.598006 0.17812,0.823719 4.04457,3.575751 1.44053,1.02533 2.47381,1.940345 2.67469,2.368548 0.42946,0.915515 0.42306,3.622576 -0.0114,4.819559 -0.60691,1.672048 -1.19395,1.872814 -5.75257,1.967324 -2.19286,0.04547 -4.06179,-2.43e-4 -4.15315,-0.101737 z m 11.13046,-1.812202 v -1.953375 h 0.77525 0.77525 v -8.545989 -8.546011 h -0.77525 -0.77525 v -1.831288 -1.831287 h 2.65801 2.65801 v 5.005518 c 0,2.753038 0.0409,5.005522 0.091,5.005522 0.05,0 0.92218,-0.603751 1.93814,-1.341667 1.49374,-1.084948 2.02407,-1.341908 2.77158,-1.342944 1.16019,-0.0016 2.17973,0.875158 2.50117,2.15092 0.1247,0.49497 0.2273,3.23484 0.22798,6.088597 l 0.002,5.188646 h 0.89532 0.89533 l -0.0647,1.892333 -0.0647,1.89233 h -3.29046 -3.29046 l -0.002,-1.831288 c -0.002,-1.792153 0.011,-1.832935 0.57708,-1.908549 l 0.57839,-0.07726 v -4.381935 -4.381936 l -0.94138,0.649572 c -0.51776,0.357268 -1.365,0.96825 -1.88276,1.357738 l -0.94138,0.708166 v 3.040417 3.040413 h 0.66449 0.66451 v 1.953374 1.953375 h -3.32252 -3.32252 z m 15.5051,0.0062 v -1.959574 h 0.78004 0.78004 l -0.0602,-4.700303 -0.0602,-4.700307 -0.71988,0.0025 -0.71988,0.0025 v -1.894738 -1.894693 h 2.65802 2.65802 v 6.592636 6.592636 h 0.89532 0.89532 l -0.0647,1.892329 -0.0647,1.892334 -3.48865,0.06724 -3.48864,0.06724 v -1.95948 z M 56.421764,44.412828 c -0.887571,-0.548856 -1.226602,-1.980414 -0.737889,-3.115713 0.631012,-1.465841 2.045223,-1.767371 3.24911,-0.692751 0.715817,0.638959 0.757525,2.686378 0.07014,3.444106 -0.603521,0.665291 -1.817604,0.836658 -2.581372,0.364358 z M 78.15922,44.06622 c -0.847586,-0.934332 -0.897277,-2.357297 -0.117226,-3.356978 0.42387,-0.543211 0.717421,-0.67954 1.463267,-0.67954 0.745838,0 1.039397,0.136329 1.463267,0.67954 1.170763,1.500384 0.246818,4.07071 -1.463267,4.07071 -0.476777,0 -0.904155,-0.22661 -1.346041,-0.713732 z m 179.67916,0.372988 c -2.15298,-1.315426 -0.87864,-5.002831 1.5276,-4.420245 0.75916,0.183802 1.54679,1.326813 1.54821,2.24674 0.003,0.870271 -0.48365,1.792833 -1.13881,2.166305 -0.74883,0.426862 -1.24712,0.428717 -1.937,0.0071 z M 94.606091,34.868999 c -0.66442,-0.513004 -0.300522,-1.024854 0.876046,-1.232251 0.789278,-0.139128 0.857242,-0.213387 0.857242,-0.936659 0,-1.37209 -1.636556,-2.405472 -2.897611,-1.829661 -0.894319,0.408351 -0.803023,1.194849 0.180903,1.558318 0.961726,0.355275 1.001847,0.735348 0.0878,0.831722 -0.971115,0.102393 -1.892308,-0.330706 -2.243944,-1.054986 -0.361609,-0.744834 -0.171325,-1.258633 0.659078,-1.779541 0.793556,-0.497802 0.855672,-0.78339 0.171376,-0.787967 -1.013175,-0.0068 -1.53587,-0.286969 -1.422982,-0.762806 0.06748,-0.284328 -0.0088,-0.454718 -0.203644,-0.454718 -0.171333,0 -0.311514,-0.219755 -0.311514,-0.488345 0,-0.471648 0.147667,-0.488345 4.319273,-0.488345 h 4.319282 v -0.592706 c 0,-1.433924 2.934604,-2.413453 5.581274,-1.862948 1.4411,0.299745 3.06406,1.12346 3.21555,1.632014 0.1664,0.558598 -0.53079,0.497898 -2.04103,-0.177707 -1.75261,-0.784024 -3.25319,-0.899371 -4.4613,-0.342925 -0.57135,0.263153 -0.75468,0.473007 -0.65739,0.752484 0.0742,0.213156 0.1349,0.433511 0.1349,0.489673 0,0.05616 2.39222,0.102115 5.31605,0.102115 5.16836,0 5.31604,0.01358 5.31604,0.488345 0,0.358118 -0.14768,0.488345 -0.55377,0.488345 h -0.55375 v 2.563803 2.563802 h -0.76312 c -0.75244,0 -0.76406,-0.01611 -0.83062,-1.151921 -0.0576,-0.9836 -0.16072,-1.206592 -0.70537,-1.526075 -0.56524,-0.331555 -0.65109,-0.332456 -0.75408,-0.0079 -0.064,0.201442 -0.47955,0.769187 -0.9236,1.261654 -0.94025,1.042745 -2.08128,1.378068 -3.30924,0.972509 -0.79788,-0.263517 -0.81947,-0.301634 -0.80926,-1.428277 0.009,-0.983639 0.0937,-1.20395 0.56424,-1.466456 0.30456,-0.169902 0.90262,-0.323281 1.32901,-0.340841 0.42639,-0.01756 0.5759,-0.0784 0.33225,-0.135191 -0.24364,-0.05681 -0.67293,-0.157589 -0.95396,-0.223981 -0.39597,-0.09355 -0.47887,-0.232182 -0.36836,-0.616 0.13031,-0.452593 0.0598,-0.488723 -0.81805,-0.419167 l -0.96065,0.07611 -0.0633,2.517582 -0.0633,2.517584 -0.71198,-0.07587 -0.711982,-0.07587 -0.06328,-2.516981 -0.06328,-2.516981 -0.822746,0.07527 -0.822736,0.07526 v 2.685889 2.68589 l 0.941386,0.328384 c 1.466408,0.511535 1.042261,1.208159 -0.457638,0.75163 -0.50185,-0.152746 -0.97265,-0.147676 -1.359958,0.01465 -0.866828,0.363299 -1.944074,0.303422 -2.518338,-0.139979 z M 104.7541,31.964046 c 0.39047,-0.51864 0.11012,-1.10188 -0.52965,-1.10188 -0.46309,0 -0.54303,0.111126 -0.527,0.732514 0.021,0.814483 0.57558,1.008342 1.05665,0.369366 z M 96.339379,29.275049 V 28.42045 h -1.661268 c -0.95984,0 -1.66126,0.103091 -1.66126,0.24417 0,0.134295 0.136074,0.24417 0.302383,0.24417 0.166308,0 0.543403,0.208992 0.837982,0.464426 0.475337,0.412163 1.012146,0.61592 1.905282,0.723185 0.174515,0.02093 0.276881,-0.282718 0.276881,-0.821352 z M 108.74346,29.152964 V 28.42045 h -1.66126 c -0.9137,0 -1.66126,0.104721 -1.66126,0.232714 0,0.328356 1.29387,0.947328 2.21502,1.059638 0.42639,0.05199 0.85001,0.112106 0.94137,0.1336 0.0914,0.02149 0.16613,-0.290557 0.16613,-0.693438 z m -43.635739,4.583078 c -0.253112,-0.299493 -0.516993,-0.793939 -0.586398,-1.098773 -0.152357,-0.669193 -0.103181,-0.665568 -1.011854,-0.07456 -1.751398,1.139107 -4.759368,0.793775 -6.437665,-0.739082 -1.081457,-0.987741 -1.843201,-2.566058 -1.474698,-3.055524 0.214962,-0.285519 0.159312,-0.347649 -0.311394,-0.347649 h -0.573124 l -0.06311,2.502757 -0.06311,2.502761 h -0.664506 -0.664505 l -0.06311,-2.502761 -0.06311,-2.502757 h -2.982519 -2.982519 v 1.126854 c 0,1.258351 -0.183175,1.259308 1.595036,-0.0084 0.684331,-0.487846 1.347867,-0.356984 2.115108,0.417135 1.427304,1.440087 -0.252528,3.607408 -2.812944,3.629272 -2.701993,0.02305 -4.391404,-1.002386 -5.732051,-3.479314 -0.528586,-0.97661 -0.455503,-1.201434 0.386355,-1.188437 0.437608,0.0068 0.754584,0.306119 1.347473,1.272616 1.379105,2.248147 3.202154,3.088208 4.815755,2.219104 0.818184,-0.440685 1.099403,-0.990674 0.859274,-1.680502 -0.101294,-0.290967 -0.242461,-0.27224 -0.84937,0.112687 -0.988248,0.626784 -1.973666,0.82236 -2.670996,0.530104 -0.511033,-0.214184 -0.588344,-0.397559 -0.647604,-1.53616 l -0.06731,-1.292951 -2.151799,-0.06978 -2.151808,-0.06978 -0.0632,2.511497 -0.0632,2.511497 h -0.664505 -0.664506 l -0.06311,-2.502759 -0.06311,-2.502759 h -0.767506 c -0.61984,0 -0.767507,-0.09396 -0.767507,-0.488345 0,-0.333828 0.147667,-0.488343 0.466702,-0.488343 0.306653,0 0.426323,-0.115989 0.348961,-0.338226 -0.172611,-0.495847 0.468039,-1.375028 1.271697,-1.745183 1.854047,-0.853954 5.062435,-0.588184 6.858508,0.568138 1.565059,1.007592 0.595384,1.542102 -1.165498,0.642453 -1.613635,-0.824419 -3.402282,-1.023056 -4.530994,-0.503184 -0.599963,0.276337 -0.824974,0.516052 -0.771596,0.822009 0.06946,0.398254 0.535609,0.436972 5.982531,0.496908 l 5.907167,0.065 0.0704,-0.651283 c 0.223494,-2.066568 4.781807,-2.65235 7.730507,-0.993435 1.877946,1.05651 1.090168,1.743707 -0.864882,0.754465 -1.620889,-0.820154 -3.411268,-1.014726 -4.54257,-0.493663 -0.600005,0.276356 -0.824966,0.516033 -0.771545,0.82201 0.0704,0.403051 0.656977,0.436174 8.781026,0.495798 5.82869,0.04278 8.659855,-0.01775 8.567127,-0.183128 -0.07614,-0.135862 -1.004772,-0.247633 -2.063556,-0.248385 -2.365749,-0.0016 -3.546125,-0.328828 -3.794065,-1.051569 -0.100789,-0.293803 -0.139238,-0.616594 -0.08541,-0.717313 0.200282,-0.374955 1.135624,-0.165809 1.429037,0.319541 0.267877,0.443088 0.605811,0.519396 2.85117,0.643823 2.429752,0.134643 3.76552,0.509712 3.76552,1.057323 0,0.149305 2.557174,0.237901 6.866552,0.237901 6.718876,0 6.866543,0.01049 6.866543,0.488344 0,0.358118 -0.147667,0.488344 -0.553753,0.488344 h -0.553754 v 2.547348 c 0,2.268562 -0.0451,2.563117 -0.411797,2.691427 -0.862078,0.301614 -1.13871,-0.07846 -1.13871,-1.564481 0,-1.047228 -0.102297,-1.503115 -0.405074,-1.805163 -0.449947,-0.448869 -1.266175,-0.537207 -1.47769,-0.15993 -0.213719,0.381195 -1.335966,0.287131 -2.063127,-0.172924 -0.542992,-0.343524 -0.761033,-0.365981 -1.236215,-0.127319 -0.729768,0.366535 -0.778533,1.222558 -0.07855,1.379042 1.796081,0.401535 1.769928,0.387485 1.468009,0.788506 -0.211284,0.280647 -0.546791,0.349963 -1.263105,0.260962 -1.844812,-0.229219 -2.824142,-1.728013 -1.797814,-2.751436 0.426177,-0.424978 0.816331,-0.475602 3.665298,-0.475602 2.403033,0 3.18834,-0.07518 3.188306,-0.305216 -2.6e-5,-0.232845 -0.943582,-0.305214 -3.979316,-0.305214 H 76.64134 l -0.06311,2.50276 -0.06311,2.50276 h -0.775258 -0.775249 l -0.06311,-2.50276 -0.06311,-2.50276 h -2.65027 -2.650271 v 1.961035 c 0,2.230093 0.2089,2.514169 1.317821,1.792068 0.913733,-0.594992 1.087913,-1.28315 0.465433,-1.838796 -0.524642,-0.468309 -0.440386,-0.938188 0.167955,-0.936707 0.63704,0.0016 1.814311,0.937105 1.814311,1.441795 0,0.604851 -0.975643,1.88799 -1.787395,2.350723 -0.821742,0.468436 -2.415741,0.456562 -3.036343,-0.02261 -0.44632,-0.344612 -0.492289,-0.584029 -0.492289,-2.563807 v -2.1837 h -1.705566 c -1.778074,0 -1.909663,0.209198 -0.454079,0.721953 0.456849,0.16093 0.830634,0.336083 0.830634,0.389223 0,0.05314 -0.222723,0.601956 -0.494939,1.2196 l -0.49493,1.122982 0.467362,0.940565 c 0.685565,1.37968 -0.06903,2.055932 -1.027949,0.92127 z m -2.645675,-1.859159 c 0.65329,-0.583145 0.449483,-1.391661 -0.291973,-1.158251 -0.272627,0.08582 -0.944224,0.219408 -1.492438,0.296855 -0.818535,0.11564 -1.108879,0.04309 -1.623831,-0.405787 -0.606574,-0.528738 -0.638987,-0.748124 -0.260365,-1.761951 0.140635,-0.37657 0.01449,-0.427299 -1.062275,-0.427299 h -1.221851 l 0.404783,0.915643 c 0.470954,1.065323 1.640157,2.370668 2.434528,2.718013 0.944104,0.412823 2.555133,0.321119 3.113422,-0.177223 z m 2.296928,-1.421806 c 0.184179,-0.529082 0.09165,-0.600601 -1.816584,-1.404094 -1.533435,-0.645682 -1.638656,-0.65896 -2.171547,-0.274064 -0.568502,0.410625 -0.907945,1.024342 -0.695864,1.258133 0.06414,0.07068 0.709747,-1.29e-4 1.43473,-0.157358 1.129407,-0.244939 1.417924,-0.228987 2.01504,0.111399 0.383303,0.2185 0.69691,0.504323 0.69691,0.635172 0,0.390534 0.384632,0.269419 0.537315,-0.169188 z"
         style="fill:#000000;fill-opacity:1;stroke-width:0.23256056" /></g></g></svg>